<?xml version="1.0" encoding="utf-8"?>
<!-- Generator: Adobe Illustrator 20.1.0, SVG Export Plug-In . SVG Version: 6.00 Build 0)  -->
<svg version="1.1" id="Layer_1" xmlns="http://www.w3.org/2000/svg" xmlns:xlink="http://www.w3.org/1999/xlink" x="0px" y="0px"
	 viewBox="0 0 1024 1024" style="enable-background:new 0 0 1024 1024;" xml:space="preserve">
<style type="text/css">
	.st0{fill:#FFFFFF;}
</style>
<g>
	<path class="st0" d="M383.9,687.8c-4.8,3.9-9.8,7.5-14.4,11.7c-19.6,17.3-40.3,33.3-60,50.4c-18.6,16.1-37,32.7-55.4,48.9
		c-8.4,7.4-16.9,14.8-25.4,22c-2.4,2.1-4.9,4.1-8.9,5.4c1.8-3.2,3.9-5,6-6.7c10.5-8.4,18.4-19.6,29.2-27.7c0.2-0.2,0.4-0.4,0.6-0.6
		c14.4-21.5,35.4-36.6,53.5-54.5c9-8.9,18.6-17.3,27.7-26.2c-13.8,6.4-27,14-40.3,21.3c-13.2,7.3-24.6,17.5-38.5,23.6
		c42.8-36.5,92.9-62.5,137.6-98.8c-8.8,0.5-16.5-0.9-23.8,1.6c-19.9,6.9-40.1,12.8-60.8,17c-2.8,0.6-6.5,0.7-11.2-0.2
		c40.6-7.8,77.5-22.4,114-40.4c-7.3,0-13.8,1.4-20.4,2.4c-7.3,1.1-14.5,2.6-21.8,3.7c-2.5,0.4-5.2,1.2-7.5-0.9
		c1.5-2.1,3.7-1.8,5.7-2.1c17.8-2.4,34.9-7,51.7-13.2c1.7-0.6,4.9-0.4,2.7-4.1c-0.8-1.4,1.1-1.8,2.1-2.2
		c10.3-3.6,19.1-10.6,30.2-12.5c1.3-0.2,1.9-1.2,2.6-2.2c7.2-9.3,13.5-19.4,23.4-26.4c2.4-1.7,0.8-7.3-2-8.1
		c-3.7-1.1-7.3-2.4-9.5-5.9c-2.8-4.3-3.6-8.7-0.8-13.3c0.9-1.5,1.7-3.1,2.4-4.7c0.2-0.5,0.6-1.2-0.1-1.6c-0.4-0.2-1.2-0.2-1.6,0.1
		c-2.9,2.3-6.3,3.7-9.4,5.6c-1.8,1.1-3.4,2.9-5.4,1.2c-2.1-1.7-5.1-2.9-4.6-6.4c0.2-1.7,0.1-2.6-1.6-3.7c-2.6-1.6-1.6-4.3,1.6-6.1
		c3.4-1.9,7.4-2.6,10.6-6.2c-6.1-0.7-11.5-1.7-16.5,2c-1.1,0.9-2.6,1.8-4.1,1c-1.6-0.9-1-2.7-0.9-4.1c0.3-4.5,1.4-8.7,5.2-11.7
		c2.9-2.4,2.5-6.1,3.1-9.4c0.2-1.4-1.2-1.4-2.2-1.4c-3.8,0-5.2-2.1-4.9-5.7c0.1-1.5-0.1-2.9,0-4.4c0.2-2.5,0.1-4.3-3.3-4.1
		c-3.1,0.2-4.2-1.8-3.6-4.6c0.8-3.9,1.8-7.7,2.7-11.7c0.3-1.4,1.1-3.1-0.6-4c-4.8-2.7-3.7-6.9-2.9-10.9c0.4-2.2,0.8-4-2.3-4.2
		c-2.3-0.1-2.4-1.7-2-3.6c0.6-2.1,1-4.3,1.6-6.4c0.9-3.2,0.9-6.2-0.6-9.4c-2.1-4.5-1.4-9.2,0.3-13.8c1.2-3.3,1.7-6.4-0.4-9.7
		c-1.6-2.5-1.8-5.8-1.2-8.6c0.8-4.2-0.6-7.2-2.9-10.5c-4.4-6.1-5.1-12.5,0.1-18.6c1.2-1.4,0.9-2.6,0.6-4.1
		c-0.7-4.6-2.4-9.3,0.9-13.6c1.1-1.4-0.3-2.5-0.8-3.6c-2.5-6-5.4-11.8-6-18.5c-0.5-5.1,0.9-6.5,6-6c1.6,0.1,3.2,0.4,4.8,0.9
		c1.4,0.4,2.6,0.9,4.2,1.6c0.2-2.2-1.4-3.1-2.2-4.3c-3.7-5.1-7.5-10.2-9.1-16.5c-0.4-1.4-1-3.1,0.2-4.2c1.4-1.2,2.9-0.1,4.1,0.5
		c8.6,4.2,17.1,8.7,25.7,13c0.7,0.4,1.4,1.2,2.7,0.4c-10.8-12.2-20.1-25.4-28.2-39.5c-1.7-3-2.3-6.3-3.5-9.4c-1-2.7,1.7-3,2.8-4.4
		c1.1-1.6,2.5-0.7,3.8,0.2c7.7,5.9,15.5,11.8,23.3,17.6c0.6,0.5,1.1,1.4,2.7,1c-1.5-2.7-2.9-5.4-4.4-8c-3.2-5.9-6.4-11.7-8.7-17.9
		c-0.7-2-2.4-4.6-0.4-6.1c1.9-1.4,4.1,0.7,6,1.9c7.9,5,14.7,11.4,21.1,18.1c7.7,8.1,15.2,16.5,22.8,24.7c2.2,2.3,4.4,4.6,7.4,6.3
		c1.1-2.6-0.6-3.9-1.7-5.4c-9.3-13.2-18.5-26.4-26.9-40.1c-1-1.6-3.2-3.4-1.1-5.4c1.7-1.6,3.9-0.6,5.8,0.3c4.3,2.1,7.9,5.2,11.2,8.7
		c11.5,12,24.4,23.1,33.5,37c12.8,19.8,31,34.7,45,53.4c1,1.3,1.9,2.6,2.9,3.9c0.2,0.2,0.5,0.2,0.9,0.4c1.1-4.7,1.1-9.7,3.4-14.1
		c2-3.7,3.1-4.1,7.2-2c-0.2-5.1-0.6-10-0.6-15c0-2.6,0.2-5.4,0.8-7.9c0.9-4.1,4-5,7.4-2.6c3.2,2.3,5.3,5.5,7.7,8.5
		c2.8,3.6,5.4,7.4,9.8,10.7c-2.2-7.9-4.2-15.1-5-22.6c-0.7-6-0.9-12.1,0.4-18.1c0.7-3.1,1.8-5.9,3.7-8.5c2.1-2.8,4.1-2.7,5.8,0.3
		c1.6,2.9,2.2,6,3.1,9.2c2.2,8.7,5,17.3,9.4,25.2c3.4,6.1,7.9,11.3,13.5,15.6c4.4,3.4,9.2,6.5,11,12.3c0.6,1.9,2.3,1.9,4.1,1.4
		c3.2-0.7,6.4-1.2,9.2,1.2c2,1.7,2.6-0.1,2.7-1.6c0.2-3.1-0.4-6.2-1.1-9.2c-4.9-18.5-5.5-37.6-7.9-56.4c-0.2-1.9-0.2-4.2,1.7-5
		c2.1-1,3.6,0.9,4.9,2.3c5.2,5.4,8.1,12.3,10.8,19.1c4.9,12.2,9.6,24.4,14.4,36.7c0.7,1.9,1.6,3.7,2.6,6.2c1.4-1.9,1-3.5,1-5
		c-0.4-16.6-0.7-33.4-1.2-50c-0.1-1.9,0-3.9,0-5.7c0.1-2.5,1.2-4.4,3.6-5c2.4-0.7,3.4,1.5,4.3,3.1c4.3,7.2,5.7,15.5,6.9,23.6
		c3.3,21.3,5.5,42.7,5.7,64.3c0.1,4.7-0.5,9.4-1.9,14c-1.1,3.8-2,7.5-1.1,11.7c0.7,3.7-1.2,7.2-3.3,10.3c-1.3,1.9-2.7,3.9-3.7,6
		c-1.7,3.9,0.1,8.5,3.9,10.3c6.5,3.2,8.9,8.2,7.2,15.3c-2,8-6,14.8-13.4,19c-8.5,4.9-14,11.8-17.3,21c-4.8,13.7-9.7,27.2-10.6,41.8
		c-0.2,3.2,0.4,4.6,4.1,5c11.4,1.4,22.7,0.3,34-0.2c7.2-0.4,14.5-0.2,21.7,0.4c9.8,0.9,18.5,4.7,26.9,9.4c4.2,2.3,7.2,5.4,7.3,10.6
		c0,0.6,0.6,1.3,1,1.9c10.3,13.4,8.2,30.7,0.6,41.8c-3.5,5-7.1,7.3-12,7.4c3.1-3.7,4.7-8,5.3-12.6c0.3-2.4,0.1-4.5-2.9-5
		c-1.9-0.3-2.6-1.7-3.4-3.2c-1.2-2.5-2.7-4.9-6-6.7c0.6,5,0.2,9.4-1.4,13.7c-0.6,1.6,0.7,2.4,1.9,3.1c1.5,0.8,3.2,1.4,5.2,2.4
		c-4.2,3.7-9.1,4-13.8,3.8c-6.6-0.3-13.5-0.9-19.5-3.6c-6.5-2.9-13-1.4-19.4-0.9c-2.6,0.2-4.9,0.2-7.3-0.9c-8.2-3.9-16.5-4.9-25-0.4
		c-4.9,2.6-10.3,4.4-16,4.7c-2.7,0.2-5,1.9-7,3.6c-18.6,15.1-40.3,20-63.7,20.1c-11.1,0.1-22.1-0.4-33.1-1.9c-3.4-0.5-5,0.2-4.4,4
		c0.9,5.2,0.1,10.3-0.6,15.4c-0.5,3.6-0.9,7.4,0.4,11c0.4,1.1,1.7,2.1,0.7,3.2c-1.1,1.2-2.4,0.4-3.7,0c-1-0.2-1.7-1.2-3.2-0.8
		c2.7,12.8-4.1,22.6-11.3,32.1c-0.8,1.1-1.7,2-2.8,2.8c-3.3,2.7-7.2,2.1-8.6-1.9c-2.1-5.8-3.1-11.7,1.4-17.1c1.9-2.2,3.6-4.7,5.4-7
		c-5.4-1.7-7.5-0.7-9.9,3.9c-8.4,17.3-18.4,33.3-34.1,45c-4.6,3.4-9.5,6.5-15.1,8c-2.4,0.6-5.3,1.8-7-0.5c-2-2.7,0.4-5.4,2.1-7
		c4.4-4.1,5.3-9.3,6.9-16c-2.6,2.2-4.2,3.5-5.7,5c-13.2,12.8-26.4,25.8-41.2,36.9c-3.9,2.9-7.8,5.9-12,8.3c-4.3,2.5-9,3.9-13.7,0.5
		c-1.9-1.4-2.6,0.7-3.5,1.6c-12.5,10.8-24.9,21.8-36.8,33.2c-7,6.7-14.1,13.5-22.4,18.7c-2.1,1.3-4.9,4-7,1.4
		c-1.8-2.2,0.8-4.7,2.3-6.5c8.5-9.9,17.3-19.8,26.1-29.5c3.3-3.7,7-7.1,9.9-11.7c-2.2,0.1-3.2,1.4-4.3,2.4
		c-12.5,9.9-24.6,20.3-35.9,31.5c-9.8,9.7-20.3,18.3-31.7,26.1c-12.8,8.8-24,19.6-37,28.1c-4,2.6-7.9,5.6-13.1,7
		c0-2.5,1.4-3.7,2.4-4.9c5.8-6.7,11.8-13.2,19.3-18.2c15.4-10.4,28.7-23.2,41.2-36.7c27.1-29.4,54-59,82.4-87.2
		c0.6-0.6,1.1-1.3,1.7-2c0.1-1.6,1.1-2.6,2-3.1C386.5,686.5,385.5,687.6,383.9,687.8z"/>
</g>
</svg>
